<svg width="64" height="64" viewBox="0 0 64 64" fill="none" xmlns="http://www.w3.org/2000/svg">
<path d="M63.062 31.0626H47.9673V28.9296H52.0399C52.5576 28.9296 52.9774 28.5098 52.9774 27.9921C52.9774 27.4743 52.5576 27.0546 52.0399 27.0546H47.9673V24.9215H50.7948C51.8481 24.9215 52.8385 24.5113 53.5833 23.7665L59.749 17.6007C60.1507 17.8009 60.5961 17.9074 61.0581 17.9074C61.8439 17.9074 62.5825 17.6014 63.1381 17.0459C63.6937 16.4902 63.9997 15.7516 63.9997 14.9659C63.9997 14.1801 63.6937 13.4415 63.1381 12.8859C62.5826 12.3303 61.8439 12.0243 61.0581 12.0243C60.2724 12.0243 59.5337 12.3303 58.9781 12.8858C58.4225 13.4414 58.1165 14.18 58.1165 14.9657C58.1165 15.4277 58.223 15.8731 58.4231 16.2749L52.2574 22.4406C51.8668 22.8312 51.3473 23.0465 50.7946 23.0465H47.9672V20.978C47.9672 18.251 45.7485 16.0325 43.0217 16.0325H40.9532V7.73315C42.1167 7.34078 42.9572 6.23991 42.9572 4.94566C42.9572 3.32367 41.6376 2.00418 40.0157 2.00418C38.3938 2.00418 37.0742 3.32379 37.0742 4.94566C37.0742 6.23991 37.9147 7.34065 39.0782 7.73315V16.0324H36.9452V11.9598C36.9452 11.442 36.5255 11.0223 36.0077 11.0223C35.49 11.0223 35.0702 11.442 35.0702 11.9598V16.0324H32.9371V0.937679C32.9371 0.419931 32.5173 0.000183105 31.9996 0.000183105C31.4818 0.000183105 31.0621 0.419931 31.0621 0.937679V16.0324H28.9291V11.9598C28.9291 11.442 28.5094 11.0223 27.9916 11.0223C27.4739 11.0223 27.0541 11.442 27.0541 11.9598V16.0324H24.9211V13.205C24.9211 12.1516 24.5109 11.1613 23.766 10.4165L17.5981 4.24867C18.143 3.14855 17.9604 1.7768 17.0455 0.861805C15.8985 -0.285066 14.0324 -0.284941 12.8855 0.861805C11.7387 2.00868 11.7387 3.87479 12.8855 5.02179C13.459 5.59516 14.2123 5.88191 14.9655 5.88191C15.414 5.88191 15.8618 5.77779 16.2724 5.57441L22.4403 11.7424C22.831 12.133 23.0461 12.6525 23.0461 13.205V16.0324H20.9776C20.5595 16.0324 20.1436 16.0849 19.7416 16.1882C19.2403 16.3172 18.9384 16.8284 19.0674 17.3299C19.1964 17.8314 19.7076 18.1332 20.209 18.0041C20.4584 17.94 20.7169 17.9074 20.9775 17.9074H43.0217C44.7148 17.9074 46.0922 19.2849 46.0922 20.9778V43.0221C46.0922 43.2825 46.0597 43.5409 45.9957 43.79C45.8668 44.2915 46.1688 44.8025 46.6702 44.9314C46.7484 44.9515 46.8269 44.9611 46.9043 44.9611C47.3219 44.9611 47.7028 44.68 47.8115 44.2568C47.9148 43.8553 47.9672 43.4398 47.9672 43.022V40.9535H56.2664C56.6588 42.117 57.7596 42.9575 59.0539 42.9575C60.6759 42.9575 61.9954 41.638 61.9954 40.016C61.9954 38.394 60.6757 37.0745 59.0539 37.0745C57.7596 37.0745 56.6589 37.915 56.2664 39.0785H47.9672V36.9454H52.0398C52.5575 36.9454 52.9773 36.5257 52.9773 36.0079C52.9773 35.4902 52.5575 35.0704 52.0398 35.0704H47.9672V32.9376H63.062C63.5797 32.9376 63.9995 32.5178 63.9995 32.0001C63.9995 31.4823 63.5797 31.0626 63.062 31.0626ZM60.3039 14.2118C60.5054 14.0103 60.7731 13.8994 61.058 13.8994C61.3429 13.8994 61.6106 14.0103 61.8121 14.2118C62.0136 14.4133 62.1245 14.681 62.1245 14.9659C62.1245 15.2507 62.0136 15.5185 61.8121 15.72C61.6106 15.9215 61.3429 16.0324 61.058 16.0324C60.7731 16.0324 60.5054 15.9215 60.3039 15.72C60.1024 15.5185 59.9915 15.2507 59.9915 14.9659C59.9915 14.681 60.1024 14.4131 60.3039 14.2118ZM15.7195 3.69604C15.3038 4.11167 14.6272 4.11179 14.2112 3.69592C13.7953 3.28005 13.7953 2.60342 14.2112 2.18767C14.4192 1.97968 14.6922 1.8758 14.9654 1.8758C15.2385 1.8758 15.5117 1.9798 15.7195 2.18767C16.1354 2.60355 16.1354 3.28017 15.7195 3.69604ZM40.0157 6.01216C39.4277 6.01216 38.9492 5.53366 38.9492 4.94566C38.9492 4.35767 39.4276 3.87917 40.0157 3.87917C40.6038 3.87917 41.0822 4.35767 41.0822 4.94566C41.0822 5.53366 40.6037 6.01216 40.0157 6.01216ZM59.054 38.9496C59.6421 38.9496 60.1205 39.4282 60.1205 40.0161C60.1205 40.6043 59.642 41.0826 59.054 41.0826C58.466 41.0826 57.9875 40.6041 57.9875 40.0161C57.9874 39.428 58.4659 38.9496 59.054 38.9496Z" fill="url(#paint0_linear)"/>
<path d="M51.114 58.9785C50.1992 58.0635 48.8273 57.8808 47.7272 58.4257L41.5593 52.2577C41.1686 51.8671 40.9535 51.3476 40.9535 50.7951V47.9677H43.022C43.4401 47.9677 43.8558 47.9152 44.2577 47.8119C44.7591 47.6829 45.0609 47.1717 44.9319 46.6702C44.8029 46.1689 44.2921 45.867 43.7903 45.996C43.5411 46.0601 43.2826 46.0926 43.022 46.0926H20.9778C19.2847 46.0926 17.9073 44.7151 17.9073 43.0221V20.9779C17.9073 20.7173 17.9398 20.4588 18.0039 20.2097C18.1331 19.7083 17.8312 19.1972 17.3298 19.0681C16.8283 18.9389 16.3172 19.2408 16.1882 19.7422C16.0847 20.1439 16.0323 20.5597 16.0323 20.9779V23.0464H7.73297C7.3406 21.8829 6.23973 21.0424 4.94548 21.0424C3.32349 21.0424 2.00399 22.3619 2.00399 23.9839C2.00399 25.6059 3.32361 26.9254 4.94548 26.9254C6.23973 26.9254 7.34047 26.0849 7.73297 24.9214H16.0322V27.0545H11.9596C11.4418 27.0545 11.0221 27.4743 11.0221 27.992C11.0221 28.5098 11.4418 28.9295 11.9596 28.9295H16.0322V31.0625H0.937496C0.419748 31.0625 0 31.4823 0 32C0 32.5178 0.419748 32.9375 0.937496 32.9375H16.0322V35.0705H11.9596C11.4418 35.0705 11.0221 35.4903 11.0221 36.008C11.0221 36.5258 11.4418 36.9455 11.9596 36.9455H16.0322V39.0786H13.2047C12.1513 39.0786 11.161 39.4888 10.4162 40.2336L4.25048 46.3994C3.84874 46.1992 3.40336 46.0927 2.94136 46.0927C2.15562 46.0927 1.41699 46.3987 0.861372 46.9542C0.305999 47.5099 0 48.2486 0 49.0342C0 49.8199 0.305999 50.5586 0.861622 51.1142C1.41712 51.6699 2.15587 51.9757 2.94161 51.9757C3.72736 51.9757 4.46598 51.6697 5.02161 51.1142C5.57723 50.5586 5.88323 49.82 5.88323 49.0342C5.88323 48.5722 5.77673 48.1269 5.5766 47.7251L11.7423 41.5594C12.133 41.1688 12.6524 40.9535 13.2051 40.9535H16.0326V43.022C16.0326 45.749 18.2512 47.9675 20.978 47.9675H23.0465V56.2667C21.883 56.6591 21.0425 57.76 21.0425 59.0542C21.0425 60.6762 22.3622 61.9957 23.984 61.9957C25.6059 61.9957 26.9255 60.6761 26.9255 59.0542C26.9255 57.76 26.085 56.6592 24.9215 56.2667V47.9675H27.0545V52.0401C27.0545 52.5578 27.4743 52.9776 27.992 52.9776C28.5098 52.9776 28.9295 52.5578 28.9295 52.0401V47.9675H31.0624V63.0625C31.0624 63.5802 31.4821 63.9999 31.9999 63.9999C32.5176 63.9999 32.9374 63.5802 32.9374 63.0625V47.9677H35.0704V52.0404C35.0704 52.5581 35.4901 52.9779 36.0079 52.9779C36.5256 52.9779 36.9454 52.5581 36.9454 52.0404V47.9677H39.0783V50.7951C39.0783 51.8485 39.4886 52.8389 40.2335 53.5836L46.4013 59.7515C45.8564 60.8516 46.0391 62.2233 46.9541 63.1383C47.5274 63.7118 48.2808 63.9985 49.0341 63.9985C49.7873 63.9985 50.5407 63.7118 51.114 63.1383C52.2609 61.9915 52.2609 60.1253 51.114 58.9785ZM4.94548 25.0504C4.35736 25.0504 3.87898 24.5719 3.87898 23.9839C3.87898 23.3958 4.35748 22.9174 4.94548 22.9174C5.53348 22.9174 6.01198 23.3959 6.01198 23.9839C6.0121 24.572 5.5336 25.0504 4.94548 25.0504ZM3.69561 49.7884C3.49411 49.9899 3.22636 50.1007 2.94149 50.1007C2.65661 50.1007 2.38887 49.9899 2.18737 49.7884C1.98587 49.5869 1.87499 49.3191 1.87499 49.0342C1.87499 48.7494 1.98587 48.4816 2.18737 48.2801C2.38887 48.0786 2.65661 47.9677 2.94149 47.9677C3.22636 47.9677 3.49411 48.0786 3.69561 48.2801C3.89711 48.4816 4.00798 48.7494 4.00798 49.0342C4.00798 49.3191 3.89711 49.587 3.69561 49.7884ZM25.0503 59.0545C25.0503 59.6425 24.5719 60.121 23.9838 60.121C23.3957 60.121 22.9173 59.6425 22.9173 59.0545C22.9173 58.4665 23.3958 57.988 23.9838 57.988C24.5718 57.988 25.0503 58.4665 25.0503 59.0545ZM49.7883 61.8126C49.3724 62.2285 48.6958 62.2283 48.2799 61.8126C47.8641 61.3967 47.8641 60.7201 48.2799 60.3043C48.4879 60.0965 48.7611 59.9925 49.0342 59.9925C49.3073 59.9925 49.5804 60.0965 49.7883 60.3043C50.2041 60.7201 50.2041 61.3967 49.7883 61.8126Z" fill="url(#paint1_linear)"/>
<path d="M41.9539 29.4952C41.9539 27.4902 40.4874 25.7918 38.4798 25.24C38.5392 24.9948 38.5722 24.7427 38.5722 24.4851C38.5722 22.5868 36.8873 21.0425 34.8165 21.0425C33.6948 21.0425 32.6872 21.4961 31.9984 22.2131C31.3097 21.4961 30.3019 21.0425 29.1803 21.0425C27.1094 21.0425 25.4247 22.5868 25.4247 24.4851C25.4247 24.7427 25.4577 24.9948 25.5171 25.24C23.5095 25.7917 22.043 27.4901 22.043 29.4952C22.043 30.4751 22.3897 31.3996 23.0303 32.1631C22.404 32.9739 22.043 33.9583 22.043 35.0063C22.0427 36.6003 22.8945 38.0887 24.2973 39.0119C24.2973 39.0127 24.2973 39.0134 24.2973 39.0142C24.2973 41.1887 26.235 42.9578 28.6167 42.9578C29.9854 42.9578 31.2066 42.3729 31.9984 41.4631C32.7903 42.3729 34.0114 42.9578 35.3802 42.9578C37.6723 42.9578 39.5522 41.319 39.6904 39.2575C41.0825 38.4498 41.9539 37.0349 41.9539 35.5072C41.9539 34.3834 41.4748 33.3114 40.6501 32.5012C41.4746 31.6909 41.9539 30.6188 41.9539 29.4952ZM38.6359 33.3302C39.5393 33.8069 40.0785 34.6208 40.0785 35.5072C40.0785 36.168 39.7714 36.7984 39.2527 37.2698C38.7598 36.3572 37.8887 35.6307 36.788 35.2849C36.2943 35.1298 35.7679 35.4044 35.6127 35.8983C35.4574 36.3923 35.7322 36.9185 36.226 37.0737C37.1818 37.374 37.824 38.1539 37.824 39.0143C37.824 40.1549 36.7275 41.0829 35.3797 41.0829C34.0319 41.0829 32.9354 40.1549 32.9354 39.0143V33.0022C32.9354 31.8616 34.0319 30.9337 35.3797 30.9337C35.8974 30.9337 36.3172 30.5139 36.3172 29.9962C36.3172 29.4784 35.8974 29.0587 35.3797 29.0587C34.4729 29.0587 33.6309 29.3157 32.9354 29.7533V28.5558C32.9354 28.0381 32.5157 27.6183 31.9979 27.6183C31.4802 27.6183 31.0604 28.0381 31.0604 28.5558V33.7604C30.7449 33.5624 30.3989 33.3986 30.0247 33.2809C29.5304 33.1257 29.0044 33.4004 28.8493 33.8942C28.6941 34.3882 28.9687 34.9144 29.4626 35.0697C30.4183 35.37 31.0604 36.1499 31.0604 37.0102V39.0142C31.0604 40.1548 29.9639 41.0828 28.6162 41.0828C27.2683 41.0828 26.1718 40.1548 26.1718 39.0142C26.1718 38.5253 26.3791 38.05 26.7553 37.676C27.1226 37.311 27.1243 36.7174 26.7593 36.3502C26.3943 35.9829 25.8008 35.9812 25.4336 36.3462C25.209 36.5695 25.0156 36.8135 24.8548 37.0729C24.2628 36.5129 23.9172 35.7762 23.9172 35.0061C23.9172 33.6171 25.0073 32.3968 26.5682 32.0387C27.0728 31.9229 27.3881 31.4199 27.2723 30.9153C27.1566 30.4106 26.6535 30.0954 26.149 30.2112C25.5206 30.3553 24.9421 30.5959 24.4291 30.9118C24.0965 30.4941 23.9173 30.0048 23.9173 29.4949C23.9177 28.0848 25.2545 26.9368 26.9023 26.926C26.9107 26.9262 26.9191 26.9273 26.9273 26.9273C27.1413 26.9273 27.3564 26.8545 27.5326 26.7053C27.8919 26.4011 27.9641 25.8848 27.7228 25.4965C27.7157 25.485 27.7092 25.4732 27.7017 25.4621C27.6978 25.4565 27.6932 25.4511 27.6892 25.4455C27.6747 25.4251 27.6598 25.4051 27.6437 25.3858C27.6432 25.3852 27.6428 25.3846 27.6423 25.3841C27.4859 25.1992 27.2993 24.8932 27.2993 24.485C27.2993 23.6206 28.1431 22.9173 29.1799 22.9173C30.2168 22.9173 31.0606 23.6206 31.0606 24.485C31.0606 25.0027 31.4803 25.4225 31.9981 25.4225C32.5158 25.4225 32.9356 25.0027 32.9356 24.485C32.9356 23.6206 33.7793 22.9173 34.8162 22.9173C35.853 22.9173 36.6968 23.6206 36.6968 24.485C36.6968 24.716 36.6363 24.913 36.5562 25.075C36.0229 25.1253 35.5072 25.2542 35.0175 25.4607C34.5404 25.6618 34.3168 26.2117 34.5179 26.6888C34.719 27.1658 35.2689 27.3897 35.746 27.1885C36.1513 27.0176 36.5873 26.9297 37.042 26.9262C37.051 26.9265 37.0599 26.9273 37.0689 26.9273C37.0773 26.9273 37.0855 26.9262 37.0939 26.926C38.7418 26.9367 40.0785 28.0848 40.0785 29.4949C40.0785 30.3813 39.5393 31.1951 38.6359 31.6719C38.3284 31.8342 38.1359 32.1533 38.1359 32.5011C38.1359 32.8488 38.3284 33.1679 38.6359 33.3302Z" fill="url(#paint2_linear)"/>
<defs>
<linearGradient id="paint0_linear" x1="17.8364" y1="4.49628" x2="66.8232" y2="18.1109" gradientUnits="userSpaceOnUse">
<stop stop-color="#99CCEE"/>
<stop offset="1" stop-color="#80B2DD"/>
</linearGradient>
<linearGradient id="paint1_linear" x1="5.811" y1="23.5344" x2="54.7978" y2="37.1487" gradientUnits="userSpaceOnUse">
<stop stop-color="#99CCEE"/>
<stop offset="1" stop-color="#80B2DD"/>
</linearGradient>
<linearGradient id="paint2_linear" x1="24.2691" y1="23.234" x2="43.5644" y2="27.4487" gradientUnits="userSpaceOnUse">
<stop stop-color="#99CCEE"/>
<stop offset="1" stop-color="#80B2DD"/>
</linearGradient>
</defs>
</svg>
