<svg width="64" height="64" viewBox="0 0 64 64" fill="none" xmlns="http://www.w3.org/2000/svg">
<path d="M62.125 50.2084C10.1645 50.2084 12.4814 50.218 12.4781 50.191C11.9086 45.6306 11.9315 45.9224 11.9686 45.9169C36.9024 45.7873 -22.7179 45.925 57.9775 45.925C61.3395 45.925 63.875 43.3779 63.875 40V14.5938C63.875 12.1313 61.8719 10.1244 59.4094 10.12L43.887 10.0933V6.125C43.887 3.91937 42.0926 2.125 39.887 2.125H36.1405C33.9355 2.125 32.1418 3.91888 32.1418 6.12375V10.073L15.4905 10.044L14.2424 3.17C13.909 1.33325 12.312 0 10.4451 0H1.875C0.8395 0 0 0.8395 0 1.875C0 2.9105 0.8395 3.75 1.875 3.75C10.9494 3.75 10.5274 3.70012 10.5527 3.83987C12.5871 15.0439 11.2924 7.21338 16.7502 42.1419L11.9516 42.1669C9.69825 42.1755 7.94413 44.1535 8.22538 46.4043L8.75688 50.6562C8.99225 52.5387 10.6004 53.9584 12.4975 53.9584H15.825C13.475 58.5214 16.8034 64 21.9584 64C27.111 64 30.4429 58.5234 28.0917 53.9584H45.95C43.5999 58.5214 46.9284 64 52.0834 64C57.2359 64 60.5677 58.5236 58.2166 53.9584H62.125C63.1605 53.9584 64 53.1189 64 52.0834C64 51.0479 63.1605 50.2084 62.125 50.2084ZM35.8919 6.12375C35.8919 5.98663 36.0035 5.875 36.1406 5.875H39.8871C40.025 5.875 40.1371 5.98712 40.1371 6.125V20C40.1371 21.0355 40.9766 21.875 42.0121 21.875H44.7966L38.9529 27.7224C38.4342 28.2413 37.5946 28.2413 37.076 27.7224L31.2321 21.875H34.0168C35.0522 21.875 35.8918 21.0355 35.8918 20V6.12375H35.8919ZM32.1419 13.823V18.125H29.012C26.4963 18.125 25.2305 21.1742 27.0103 22.9555L34.4238 30.3732C36.408 32.3586 39.6208 32.3589 41.6053 30.3732L49.0186 22.9555C50.7972 21.1759 49.5349 18.125 47.017 18.125H43.8871V13.8433L59.403 13.87C59.8013 13.8706 60.125 14.1954 60.125 14.5938V40C60.125 41.3009 59.262 42.175 57.9775 42.175H20.551L16.1164 13.7951L32.1419 13.823ZM25.1041 57.1041C25.1041 58.8388 23.6929 60.25 21.9583 60.25C20.2236 60.25 18.8125 58.8388 18.8125 57.1041C18.8125 55.3695 20.2238 53.9582 21.9584 53.9582C23.693 53.9582 25.1041 55.3696 25.1041 57.1041ZM55.2291 57.1041C55.2291 58.8388 53.818 60.25 52.0834 60.25C50.3487 60.25 48.9375 58.8388 48.9375 57.1041C48.9375 55.3695 50.3487 53.9582 52.0834 53.9582C53.818 53.9582 55.2291 55.3696 55.2291 57.1041Z" fill="url(#paint0_linear)"/>
<defs>
<linearGradient id="paint0_linear" x1="7.15556" y1="6.4" x2="68.5853" y2="21.169" gradientUnits="userSpaceOnUse">
<stop stop-color="#99CCEE"/>
<stop offset="1" stop-color="#80B2DD"/>
</linearGradient>
</defs>
</svg>
