<svg width="80" height="80" viewBox="0 0 80 80" fill="none" xmlns="http://www.w3.org/2000/svg">
<g clip-path="url(#clip0)">
<path d="M73.9823 21.7059L73.9799 21.6436C73.9451 20.8752 73.9219 20.0622 73.9079 19.1577C73.8426 14.7467 70.3361 11.098 65.9245 10.8514C56.7265 10.3381 49.6111 7.33888 43.5314 1.41299L43.4795 1.36355C41.4965 -0.45468 38.5051 -0.45468 36.5215 1.36355L36.4696 1.41299C30.3899 7.33888 23.2745 10.3381 14.0765 10.8521C9.66549 11.098 6.15842 14.7467 6.09311 19.1583C6.07968 20.0567 6.05588 20.8697 6.02109 21.6436L6.01743 21.7883C5.83859 31.1675 5.61643 42.8405 9.52145 53.4356C11.6687 59.262 14.9206 64.3266 19.1863 68.4898C24.0447 73.231 30.4082 76.9951 38.0999 79.6769C38.3501 79.7642 38.6101 79.835 38.875 79.8881C39.2485 79.9626 39.6245 79.9998 40.0005 79.9998C40.3765 79.9998 40.753 79.9626 41.126 79.8881C41.3909 79.835 41.6527 79.7636 41.9042 79.6757C49.5866 76.989 55.9434 73.2231 60.7975 68.4825C65.0614 64.3181 68.3134 59.2522 70.4624 53.4246C74.3821 42.7978 74.1605 31.1028 73.9823 21.7059ZM66.0581 51.8004C61.9395 62.9674 53.5319 70.6364 40.3551 75.2446C40.3081 75.2604 40.2581 75.2745 40.2062 75.2849C40.0701 75.3117 39.9315 75.3117 39.7936 75.2842C39.7423 75.2739 39.6923 75.2604 39.6459 75.2446C26.455 70.645 18.0419 62.9802 13.9263 51.8126C10.3271 42.0464 10.531 31.3311 10.711 21.878L10.7122 21.8255C10.7489 21.0132 10.7733 20.1623 10.7867 19.2273C10.816 17.2687 12.3761 15.6482 14.3383 15.5389C19.5434 15.2484 24.1161 14.2425 28.3178 12.464C32.5139 10.6879 36.2407 8.18421 39.71 4.8102C39.8863 4.66127 40.1152 4.66066 40.291 4.8102C43.7608 8.18421 47.4876 10.6879 51.6832 12.464C55.8848 14.2425 60.4576 15.2484 65.6633 15.5389C67.6255 15.6482 69.1856 17.2687 69.2143 19.2279C69.2283 20.1678 69.2527 21.0186 69.2893 21.8255C69.4688 31.2896 69.6678 42.0135 66.0581 51.8004Z" fill="url(#paint0_linear)"/>
<path d="M39.9996 20.0641C29.006 20.0641 20.0625 29.0082 20.0625 40.0012C20.0625 50.9949 29.006 59.939 39.9996 59.939C50.9927 59.939 59.9368 50.9949 59.9368 40.0012C59.9368 29.0082 50.9927 20.0641 39.9996 20.0641ZM39.9996 55.2441C31.5945 55.2441 24.7567 48.4064 24.7567 40.0012C24.7567 31.5961 31.5945 24.7583 39.9996 24.7583C48.4042 24.7583 55.2419 31.5961 55.2419 40.0012C55.2419 48.4064 48.4042 55.2441 39.9996 55.2441Z" fill="url(#paint1_linear)"/>
<path d="M45.7297 33.8117L36.4695 43.0719L33.956 40.5585C33.0393 39.6418 31.5531 39.6418 30.6363 40.5585C29.7202 41.4753 29.7202 42.9615 30.6363 43.8776L34.8099 48.0512C35.2683 48.5096 35.8689 48.7384 36.4695 48.7384C37.07 48.7384 37.6706 48.5096 38.129 48.0512L49.0494 37.1308C49.9655 36.214 49.9655 34.7278 49.0494 33.8117C48.1327 32.8943 46.6465 32.8943 45.7297 33.8117Z" fill="url(#paint2_linear)"/>
</g>
<defs>
<linearGradient id="paint0_linear" x1="13.5542" y1="7.99987" x2="79.9395" y2="21.591" gradientUnits="userSpaceOnUse">
<stop stop-color="#99CCEE"/>
<stop offset="1" stop-color="#80B2DD"/>
</linearGradient>
<linearGradient id="paint1_linear" x1="24.5207" y1="24.0516" x2="62.7936" y2="33.2531" gradientUnits="userSpaceOnUse">
<stop stop-color="#99CCEE"/>
<stop offset="1" stop-color="#80B2DD"/>
</linearGradient>
<linearGradient id="paint2_linear" x1="32.1615" y1="34.6851" x2="50.5456" y2="40.2861" gradientUnits="userSpaceOnUse">
<stop stop-color="#99CCEE"/>
<stop offset="1" stop-color="#80B2DD"/>
</linearGradient>
<clipPath id="clip0">
<rect width="80" height="80" fill="white"/>
</clipPath>
</defs>
</svg>
