<svg width="80" height="80" viewBox="0 0 80 80" fill="none" xmlns="http://www.w3.org/2000/svg">
<path d="M75.975 33.895C76.1488 33.4625 76.25 32.9937 76.25 32.5V5C76.25 2.9325 74.5675 1.25 72.5 1.25H42.5C40.4325 1.25 38.75 2.9325 38.75 5V32.5C38.75 32.9937 38.8512 33.4625 39.025 33.895C37.4312 34.3262 36.25 35.7713 36.25 37.5V43.75H33.75V48.75H31.25V52.8062L22.8125 55.2175C22.3337 54.3612 21.8175 53.5275 21.25 52.7287V43.7012C22.5263 43.5825 23.7162 43.0537 24.635 42.135C25.6763 41.0925 26.25 39.7062 26.25 38.2325V35.9013L30 34.6513V33.75C30 31.165 28.495 27.6875 27.2338 25.2262C27.11 24.985 26.965 24.7613 26.8088 24.5475C29.4 23.5613 31.25 21.0588 31.25 18.125C31.25 14.3337 28.1663 11.25 24.375 11.25H17.9513C8.7425 11.25 1.25 18.7425 1.25 27.9513C1.25 34.3187 4.7875 40.0425 10.4813 42.89L11.25 43.2738V45.3838L10.5025 45.6637C5.0525 47.7087 1.37125 52.945 1.26 58.75H1.25V78.75H26.25V71.5888L31.25 69.7975V78.75H47.5C49.5675 78.75 51.25 77.0675 51.25 75V56.25H53.98C53.84 56.6425 53.75 57.06 53.75 57.5V72.5C53.75 74.5675 55.4325 76.25 57.5 76.25H72.5C74.5675 76.25 76.25 74.5675 76.25 72.5V57.5C76.25 57.0062 76.1488 56.5375 75.975 56.105C77.5687 55.6725 78.75 54.2287 78.75 52.5V37.5C78.75 35.7713 77.5687 34.3262 75.975 33.895ZM53.75 3.75H61.25V8.75H53.75V3.75ZM41.25 5C41.25 4.31125 41.8112 3.75 42.5 3.75H51.25V11.25H63.75V3.75H72.5C73.1888 3.75 73.75 4.31125 73.75 5V32.5C73.75 33.1887 73.1888 33.75 72.5 33.75H60H55H42.5C41.8112 33.75 41.25 33.1887 41.25 32.5V5ZM66.25 36.25H68.75V38.75H66.25V36.25ZM46.25 36.25H48.75V38.75H46.25V36.25ZM36.25 46.25H47.5C48.1888 46.25 48.75 46.81 48.75 47.5C48.75 48.19 48.1888 48.75 47.5 48.75H36.25V46.25ZM15.655 66.1125L33.4775 61.02L34.3775 58.3225C34.6038 57.6425 35.1437 57.1025 35.8237 56.8763C36.6488 56.6025 37.545 56.8125 38.1625 57.4287L39.4825 58.75H41.4463C42.7163 58.75 43.75 59.7838 43.75 61.055C43.75 62.0838 43.0575 62.9963 41.9825 63.3L21.705 70.5625C20.43 71.0175 19.0963 71.25 17.74 71.25H16.0625C14.47 71.25 12.91 70.915 11.465 70.3013L15.655 66.1125ZM31.25 55.4075V59.0575L25.1437 60.8012C24.8137 59.6712 24.4225 58.565 23.95 57.4937L31.25 55.4075ZM27.43 32.8725L23.75 34.1V38.2337C23.75 39.04 23.4363 39.7975 22.865 40.3687C22.2962 40.9387 21.5387 41.2525 20.7325 41.2525L16.25 41.25V43.75L18.75 43.7513V49.71C17.26 48.145 15.5863 46.7575 13.75 45.5863V35.7325L11.6163 33.5988C11.38 33.3625 11.25 33.0475 11.25 32.7137V32.5C11.25 31.8113 11.8112 31.25 12.5 31.25H13.75V27.5C13.75 26.1213 14.8713 25 16.25 25H22.5H22.7787C23.7225 25 24.5763 25.5238 25.0088 26.3663C26.3525 28.9875 27.19 31.25 27.43 32.8725ZM3.75 27.9513C3.75 20.1213 10.1213 13.75 17.9513 13.75H24.375C26.7875 13.75 28.75 15.7125 28.75 18.125C28.75 20.5375 26.7875 22.5 24.375 22.5H22.7787H22.5H16.25C13.4925 22.5 11.25 24.7425 11.25 27.5V28.9637C9.795 29.48 8.75 30.87 8.75 32.5V32.7137C8.75 33.715 9.14 34.6575 9.84875 35.3662L11.25 36.7675V40.4462C6.62125 37.9662 3.75 33.2275 3.75 27.9513ZM11.3812 48.005L12.3388 47.645C17.3587 50.825 21.0787 55.7912 22.7437 61.4875L15.8075 63.4688L15.315 61.9925C14.1587 58.525 11.35 55.9237 7.8025 55.0375L7.19625 57.4625C9.91 58.1413 12.0587 60.1313 12.9437 62.785L13.57 64.6637L9.1975 69.0362C8.9275 68.8425 8.66375 68.6375 8.41 68.42L7.8575 67.9463C5.2475 65.7075 3.75 62.4538 3.75 59.0163C3.75 54.1413 6.81625 49.7162 11.3812 48.005ZM23.75 76.25H3.75V67.0475C4.44875 68.07 5.26875 69.0188 6.23 69.8425L6.7825 70.3162C9.365 72.53 12.66 73.75 16.0625 73.75H17.74C19.3838 73.75 21.0012 73.4688 22.5487 72.915L23.75 72.485V76.25ZM47.5 76.25H33.75V68.9012L42.7412 65.68C44.8075 65.1012 46.25 63.2 46.25 61.055C46.25 58.4063 44.095 56.25 41.4463 56.25H40.5175L39.9287 55.6612C38.6388 54.37 36.7625 53.9263 35.0325 54.5037C34.5637 54.66 34.1425 54.91 33.75 55.1963V51.25H47.5C47.94 51.25 48.3575 51.16 48.75 51.02V75C48.75 75.69 48.1888 76.25 47.5 76.25ZM51.25 47.5C51.25 45.4325 49.5675 43.75 47.5 43.75H38.75V37.5C38.75 36.8112 39.3112 36.25 40 36.25H42.5H43.75V41.25H51.25V36.25H55C55.6888 36.25 56.25 36.8112 56.25 37.5V52.5C56.25 53.19 55.6888 53.75 55 53.75H51.25V47.5ZM73.75 72.5C73.75 73.19 73.1888 73.75 72.5 73.75H57.5C56.8112 73.75 56.25 73.19 56.25 72.5V57.5C56.25 56.81 56.8112 56.25 57.5 56.25H60H61.25V61.25H68.75V56.25H72.5C73.1888 56.25 73.75 56.81 73.75 57.5V72.5ZM63.75 56.25H66.25V58.75H63.75V56.25ZM76.25 52.5C76.25 53.19 75.6888 53.75 75 53.75H72.5H60C59.3112 53.75 58.75 53.19 58.75 52.5V37.5C58.75 36.8112 59.3112 36.25 60 36.25H63.75V41.25H71.25V36.25H72.5H75C75.6888 36.25 76.25 36.8112 76.25 37.5V52.5Z" fill="url(#paint0_linear)"/>
<path d="M63.75 28.75H66.25V31.25H63.75V28.75Z" fill="url(#paint1_linear)"/>
<path d="M68.75 28.75H71.25V31.25H68.75V28.75Z" fill="url(#paint2_linear)"/>
<path d="M58.75 28.75H61.25V31.25H58.75V28.75Z" fill="url(#paint3_linear)"/>
<path d="M58.75 23.75H71.25V26.25H58.75V23.75Z" fill="url(#paint4_linear)"/>
<defs>
<linearGradient id="paint0_linear" x1="9.91493" y1="9" x2="84.3025" y2="26.8843" gradientUnits="userSpaceOnUse">
<stop stop-color="#99CCEE"/>
<stop offset="1" stop-color="#80B2DD"/>
</linearGradient>
<linearGradient id="paint1_linear" x1="64.0295" y1="29" x2="66.4291" y2="29.5769" gradientUnits="userSpaceOnUse">
<stop stop-color="#99CCEE"/>
<stop offset="1" stop-color="#80B2DD"/>
</linearGradient>
<linearGradient id="paint2_linear" x1="69.0295" y1="29" x2="71.4291" y2="29.5769" gradientUnits="userSpaceOnUse">
<stop stop-color="#99CCEE"/>
<stop offset="1" stop-color="#80B2DD"/>
</linearGradient>
<linearGradient id="paint3_linear" x1="59.0295" y1="29" x2="61.4291" y2="29.5769" gradientUnits="userSpaceOnUse">
<stop stop-color="#99CCEE"/>
<stop offset="1" stop-color="#80B2DD"/>
</linearGradient>
<linearGradient id="paint4_linear" x1="60.1476" y1="24" x2="65.3382" y2="30.2397" gradientUnits="userSpaceOnUse">
<stop stop-color="#99CCEE"/>
<stop offset="1" stop-color="#80B2DD"/>
</linearGradient>
</defs>
</svg>
