<svg width="80" height="80" viewBox="0 0 80 80" fill="none" xmlns="http://www.w3.org/2000/svg">
<g clip-path="url(#clip0)">
<path d="M79.8836 30.8839L76.0721 9.8012C75.5343 6.82621 73.1743 4.46622 70.1996 3.92856L49.1165 0.117015C46.7681 -0.30689 44.3575 0.446701 42.6699 2.13451L2.12985 42.674C-0.709978 45.5143 -0.709978 50.1357 2.13001 52.9762L27.0241 77.8705C28.4444 79.2906 30.3097 80.0006 32.1754 80.0006C34.0408 80.0006 35.9063 79.2906 37.3264 77.8705L77.8661 37.3311C79.5544 35.6431 80.3085 33.233 79.8836 30.8839ZM74.5485 34.0134L34.0089 74.553C32.9977 75.5641 31.3529 75.5641 30.3419 74.553L5.44781 49.6585C4.43672 48.6474 4.43672 47.0026 5.44765 45.9915L45.9872 5.45199C46.4778 4.96153 47.1397 4.69262 47.8212 4.69262C47.9745 4.69262 48.1287 4.70622 48.2822 4.73387L69.3651 8.54558C70.4238 8.73682 71.2638 9.57698 71.4552 10.6359L75.2668 31.7185C75.418 32.5545 75.1494 33.4125 74.5485 34.0134Z" fill="url(#paint0_linear)"/>
<path d="M65.308 14.6277C62.8041 12.1235 58.7297 12.1237 56.2258 14.6277C53.7216 17.1318 53.7216 21.206 56.2258 23.71C57.4777 24.9621 59.1222 25.5882 60.7669 25.5882C62.4116 25.5882 64.056 24.9621 65.3078 23.7102C66.5209 22.4971 67.1889 20.8844 67.1889 19.169C67.1891 17.4535 66.5211 15.8407 65.308 14.6277ZM61.9905 20.3922V20.3924C61.316 21.0671 60.2183 21.0674 59.5435 20.3924C58.8688 19.7177 58.8688 18.6199 59.5435 17.9452C59.8808 17.6079 60.3239 17.4393 60.7669 17.4393C61.2102 17.4393 61.6531 17.6082 61.9905 17.9454C62.3174 18.2723 62.4974 18.7066 62.4974 19.1688C62.4974 19.631 62.3174 20.0654 61.9905 20.3922Z" fill="url(#paint1_linear)"/>
<path d="M29.837 59.6171L26.2123 55.9924L28.3337 53.871C28.549 53.6557 28.6286 53.4074 28.5723 53.1265C28.5162 52.8454 28.3806 52.5974 28.165 52.3818C27.9311 52.1479 27.6707 52.0049 27.3853 51.9534C27.0995 51.9018 26.8536 51.9792 26.6478 52.1849L24.5264 54.3063L22.1519 51.9318L25.7908 48.2929C25.9967 48.087 26.0648 47.8318 25.9945 47.5274C25.9243 47.2232 25.7534 46.9351 25.4817 46.6634C25.2289 46.4104 24.9526 46.2467 24.6526 46.1715C24.3531 46.097 24.0956 46.167 23.8803 46.3823L19.0052 51.2574C18.7428 51.5199 18.5766 51.8032 18.5064 52.1076C18.4361 52.4123 18.5088 52.6718 18.7241 52.8873L27.6454 61.8086C27.8612 62.0244 28.135 62.0829 28.4675 61.9847C28.7998 61.8865 29.1157 61.6874 29.4156 61.3874C29.7153 61.0876 29.9143 60.7718 30.0126 60.4393C30.111 60.1068 30.0528 59.8329 29.837 59.6171Z" fill="url(#paint2_linear)"/>
<path d="M41.6233 47.0707C41.5203 46.9677 41.4128 46.9068 41.3002 46.888L36.4813 45.4969C37.1742 43.9238 36.7905 42.4062 35.3293 40.9451C33.325 38.9409 31.1705 39.0907 28.8665 41.3948L25.9581 44.3032C25.7613 44.4998 25.6654 44.7266 25.6701 44.9844C25.6748 45.2423 25.7662 45.4599 25.944 45.6377L34.8794 54.5732C35.0952 54.7889 35.3688 54.8475 35.7013 54.7489C36.0338 54.6507 36.3497 54.4516 36.6494 54.1519C36.9491 53.8522 37.1481 53.5364 37.2467 53.2038C37.345 52.8713 37.2866 52.5975 37.0708 52.3818L33.685 48.996L34.6124 48.0686L40.2744 49.881C40.6866 50.0122 41.0564 49.914 41.3842 49.586C41.712 49.2582 41.9019 48.8249 41.9531 48.286C42.0052 47.7474 41.8948 47.3424 41.6233 47.0707ZM33.3905 45.9185L31.9994 47.3096L29.3863 44.6965L30.7774 43.3054C31.1894 42.8934 31.604 42.6804 32.0208 42.6663C32.4375 42.6524 32.88 42.8791 33.3483 43.3474C33.8169 43.816 34.0438 44.2585 34.0297 44.6752C34.0155 45.0921 33.8025 45.5063 33.3905 45.9185Z" fill="url(#paint3_linear)"/>
<path d="M49.9266 40.313C49.8518 40.0133 49.6878 39.7371 49.4349 39.4841C49.1633 39.2125 48.8753 39.0418 48.5708 38.9713C48.2663 38.9014 48.011 38.9693 47.8052 39.175L44.0399 42.9403L41.6516 40.5521L43.7591 38.4446C43.9744 38.2293 44.0541 37.9808 43.9979 37.6999C43.9418 37.4188 43.8061 37.1708 43.5905 36.9552C43.3566 36.7213 43.0963 36.5783 42.8108 36.5268C42.5249 36.4754 42.279 36.5527 42.0732 36.7585L39.9657 38.866L37.5912 36.4915L41.3565 32.7261C41.5624 32.5202 41.6305 32.2651 41.5604 31.9605C41.4902 31.6563 41.3193 31.3682 41.0476 31.0965C40.7947 30.8433 40.5185 30.6797 40.2185 30.6046C39.919 30.5301 39.6613 30.6002 39.446 30.8155L34.4445 35.8171C34.1824 36.0794 34.016 36.3627 33.9459 36.6671C33.8755 36.9718 33.9482 37.2313 34.1635 37.4468L43.0849 46.3681C43.3007 46.5839 43.5602 46.6566 43.8644 46.586C44.169 46.516 44.4519 46.3496 44.7143 46.0872L49.7158 41.0857C49.9311 40.8703 50.0016 40.613 49.9266 40.313Z" fill="url(#paint4_linear)"/>
<path d="M57.4988 32.7406C57.424 32.4409 57.2601 32.1646 57.0071 31.9117C56.7356 31.6401 56.4476 31.4693 56.1431 31.3989C55.8385 31.329 55.5834 31.3967 55.3774 31.6026L51.6123 35.3678L49.224 32.9795L51.3314 30.8721C51.5467 30.6568 51.6264 30.4084 51.5701 30.1275C51.514 29.8464 51.3784 29.5984 51.1628 29.3828C50.9289 29.1489 50.6686 29.0059 50.3831 28.9545C50.0972 28.9031 49.8514 28.9803 49.6454 29.1862L47.5381 31.2935L45.1636 28.919L48.9287 25.1539C49.1348 24.9478 49.2028 24.6928 49.1326 24.3883C49.0625 24.084 48.8915 23.7959 48.6198 23.5242C48.367 23.2711 48.0908 23.1075 47.7908 23.0323C47.4912 22.9578 47.2336 23.028 47.0183 23.2433L42.0167 28.2448C41.7547 28.507 41.5883 28.7904 41.5181 29.0948C41.4478 29.3995 41.5205 29.659 41.7358 29.8745L50.6572 38.7959C50.8729 39.0117 51.1325 39.0843 51.4367 39.0137C51.7412 38.9437 52.0242 38.7773 52.2865 38.5149L57.2881 33.5134C57.5034 33.2981 57.5738 33.0406 57.4988 32.7406Z" fill="url(#paint5_linear)"/>
</g>
<defs>
<linearGradient id="paint0_linear" x1="8.94443" y1="8.00105" x2="85.7314" y2="26.4624" gradientUnits="userSpaceOnUse">
<stop stop-color="#99CCEE"/>
<stop offset="1" stop-color="#80B2DD"/>
</linearGradient>
<linearGradient id="paint1_linear" x1="55.7834" y1="14.0335" x2="68.1086" y2="16.9974" gradientUnits="userSpaceOnUse">
<stop stop-color="#99CCEE"/>
<stop offset="1" stop-color="#80B2DD"/>
</linearGradient>
<linearGradient id="paint2_linear" x1="19.775" y1="47.7315" x2="31.1808" y2="49.7299" gradientUnits="userSpaceOnUse">
<stop stop-color="#99CCEE"/>
<stop offset="1" stop-color="#80B2DD"/>
</linearGradient>
<linearGradient id="paint3_linear" x1="27.4919" y1="41.0714" x2="43.0127" y2="45.0591" gradientUnits="userSpaceOnUse">
<stop stop-color="#99CCEE"/>
<stop offset="1" stop-color="#80B2DD"/>
</linearGradient>
<linearGradient id="paint4_linear" x1="35.7128" y1="32.1794" x2="51.1045" y2="35.8798" gradientUnits="userSpaceOnUse">
<stop stop-color="#99CCEE"/>
<stop offset="1" stop-color="#80B2DD"/>
</linearGradient>
<linearGradient id="paint5_linear" x1="43.2851" y1="24.6072" x2="58.6768" y2="28.3075" gradientUnits="userSpaceOnUse">
<stop stop-color="#99CCEE"/>
<stop offset="1" stop-color="#80B2DD"/>
</linearGradient>
<clipPath id="clip0">
<rect width="80" height="80" fill="white"/>
</clipPath>
</defs>
</svg>
