<svg width="32" height="32" viewBox="0 0 32 32" fill="none" xmlns="http://www.w3.org/2000/svg">
<path d="M22.467 0H9.53297C4.27647 0 0 4.27647 0 9.53297V22.467C0 27.7235 4.27647 32 9.53297 32H22.467C27.7235 32 32 27.7235 32 22.467V9.53297C31.9999 4.27647 27.7235 0 22.467 0ZM28.7808 22.467C28.7808 25.954 25.954 28.7808 22.467 28.7808H9.53297C6.046 28.7808 3.2192 25.954 3.2192 22.467V9.53297C3.2192 6.04594 6.046 3.2192 9.53297 3.2192H22.467C25.954 3.2192 28.7808 6.04594 28.7808 9.53297V22.467Z" fill="url(#paint0_linear)"/>
<path d="M16.0009 7.72363C11.4374 7.72363 7.72461 11.4364 7.72461 15.9999C7.72461 20.5634 11.4374 24.2763 16.0009 24.2763C20.5645 24.2763 24.2773 20.5635 24.2773 15.9999C24.2773 11.4363 20.5645 7.72363 16.0009 7.72363ZM16.0009 21.0571C13.2079 21.0571 10.9438 18.793 10.9438 16C10.9438 13.207 13.208 10.9428 16.0009 10.9428C18.794 10.9428 21.0581 13.207 21.0581 16C21.0581 18.7929 18.7939 21.0571 16.0009 21.0571Z" fill="url(#paint1_linear)"/>
<path d="M24.2918 9.7691C25.3871 9.7691 26.275 8.8812 26.275 7.78592C26.275 6.69064 25.3871 5.80273 24.2918 5.80273C23.1965 5.80273 22.3086 6.69064 22.3086 7.78592C22.3086 8.8812 23.1965 9.7691 24.2918 9.7691Z" fill="url(#paint2_linear)"/>
<defs>
<linearGradient id="paint0_linear" x1="16" y1="31.9069" x2="16" y2="0.248549" gradientUnits="userSpaceOnUse">
<stop stop-color="#E09B3D"/>
<stop offset="0.3" stop-color="#C74C4D"/>
<stop offset="0.6" stop-color="#C21975"/>
<stop offset="1" stop-color="#7024C4"/>
</linearGradient>
<linearGradient id="paint1_linear" x1="16.0009" y1="31.9068" x2="16.0009" y2="0.248522" gradientUnits="userSpaceOnUse">
<stop stop-color="#E09B3D"/>
<stop offset="0.3" stop-color="#C74C4D"/>
<stop offset="0.6" stop-color="#C21975"/>
<stop offset="1" stop-color="#7024C4"/>
</linearGradient>
<linearGradient id="paint2_linear" x1="24.2918" y1="31.907" x2="24.2918" y2="0.248667" gradientUnits="userSpaceOnUse">
<stop stop-color="#E09B3D"/>
<stop offset="0.3" stop-color="#C74C4D"/>
<stop offset="0.6" stop-color="#C21975"/>
<stop offset="1" stop-color="#7024C4"/>
</linearGradient>
</defs>
</svg>
