<svg width="64" height="64" viewBox="0 0 64 64" fill="none" xmlns="http://www.w3.org/2000/svg">
<g clip-path="url(#clip0)">
<path d="M63.4733 8.0774C63.4353 8.04165 55.9177 0.872273 55.9177 0.872273C55.6303 0.596523 55.333 0.311523 54.778 0.311523H24.513C23.629 0.311523 22.9098 1.03065 22.9098 1.91465V6.83752L12.2429 8.66602C11.3879 8.81602 10.8129 9.63427 10.961 10.4884L11.5024 13.6449C8.03528 14.8116 4.47565 16.0144 1.03928 17.2488C0.227279 17.5456 -0.198846 18.4485 0.0909037 19.2654L6.92653 38.2674C7.06403 38.6498 7.4244 38.8879 7.80878 38.8879C7.91403 38.8879 8.02128 38.87 8.12603 38.8323C8.61328 38.657 8.86615 38.12 8.6909 37.6328L1.9564 18.9118C5.1939 17.7526 8.54665 16.6181 11.8233 15.5153L15.0447 34.2959L18.7514 55.9249C18.8853 56.6884 19.5564 57.2316 20.3139 57.2316C20.3997 57.2316 20.4867 57.2246 20.5739 57.2103L30.6134 55.4874L38.4584 54.1426L26.6595 58.3835L17.3552 61.7289L10.1292 41.6303C9.95403 41.143 9.41715 40.8901 8.92978 41.0653C8.44253 41.2404 8.18965 41.7774 8.36478 42.2646L15.6933 62.6489C15.9277 63.2899 16.5349 63.6884 17.1768 63.6884C17.3542 63.6884 17.5343 63.6579 17.7098 63.5938L27.2937 60.148L49.0554 52.3263L53.2128 51.6136H62.3967C63.2807 51.6136 63.9999 50.8929 63.9999 50.0069V9.13377C64 8.57265 63.6955 8.2864 63.4733 8.0774ZM60.9894 8.2994H56.2982L56.1819 8.2999C55.9573 8.3014 55.4314 8.30527 55.298 8.17277C55.2673 8.14215 55.2313 8.0399 55.2313 7.85002L55.2204 2.79815L60.9894 8.2994ZM62.125 49.7384H24.7848V31.4675C24.7848 30.9498 24.365 30.53 23.8473 30.53C23.3295 30.53 22.9098 30.9498 22.9098 31.4675V50.0066C22.9098 50.8925 23.629 51.6134 24.513 51.6134H42.1145L30.2964 53.6391L20.5487 55.312L16.8927 33.9789L12.859 10.4626L22.9097 8.73977V27.1175C22.9097 27.6353 23.3294 28.055 23.8472 28.055C24.3649 28.055 24.7847 27.6353 24.7847 27.1175V2.1864H53.344L53.3563 7.85215C53.3563 8.5389 53.5652 9.0944 53.977 9.5034C54.6099 10.1318 55.5045 10.1755 56.0599 10.1755C56.1077 10.1755 56.1529 10.1751 56.1953 10.1749L62.125 10.1745V49.7384Z" fill="url(#paint0_linear)"/>
<path d="M29.3027 14.8687C29.3027 15.3864 29.7225 15.8062 30.2402 15.8062H57.0447C57.5625 15.8062 57.9822 15.3864 57.9822 14.8687C57.9822 14.3509 57.5625 13.9312 57.0447 13.9312H30.2402C29.7225 13.9312 29.3027 14.3509 29.3027 14.8687Z" fill="url(#paint1_linear)"/>
<path d="M57.0447 20.5912H30.2402C29.7225 20.5912 29.3027 21.0109 29.3027 21.5287C29.3027 22.0464 29.7225 22.4662 30.2402 22.4662H57.0447C57.5625 22.4662 57.9822 22.0464 57.9822 21.5287C57.9822 21.0109 57.5625 20.5912 57.0447 20.5912Z" fill="url(#paint2_linear)"/>
<path d="M57.0447 27.2515H30.2402C29.7225 27.2515 29.3027 27.6712 29.3027 28.189C29.3027 28.7067 29.7225 29.1265 30.2402 29.1265H57.0447C57.5625 29.1265 57.9822 28.7067 57.9822 28.189C57.9822 27.6712 57.5625 27.2515 57.0447 27.2515Z" fill="url(#paint3_linear)"/>
<path d="M57.0447 33.9118H30.2402C29.7225 33.9118 29.3027 34.3316 29.3027 34.8493C29.3027 35.3671 29.7225 35.7868 30.2402 35.7868H57.0447C57.5625 35.7868 57.9822 35.3671 57.9822 34.8493C57.9822 34.3316 57.5625 33.9118 57.0447 33.9118Z" fill="url(#paint4_linear)"/>
<path d="M57.0447 40.5723H30.2402C29.7225 40.5723 29.3027 40.992 29.3027 41.5098C29.3027 42.0275 29.7225 42.4473 30.2402 42.4473H57.0447C57.5625 42.4473 57.9822 42.0275 57.9822 41.5098C57.9822 40.992 57.5625 40.5723 57.0447 40.5723Z" fill="url(#paint5_linear)"/>
</g>
<defs>
<linearGradient id="paint0_linear" x1="7.15554" y1="6.64921" x2="68.5189" y2="21.5473" gradientUnits="userSpaceOnUse">
<stop stop-color="#99CCEE"/>
<stop offset="1" stop-color="#80B2DD"/>
</linearGradient>
<linearGradient id="paint1_linear" x1="32.5093" y1="14.1187" x2="34.5142" y2="21.4917" gradientUnits="userSpaceOnUse">
<stop stop-color="#99CCEE"/>
<stop offset="1" stop-color="#80B2DD"/>
</linearGradient>
<linearGradient id="paint2_linear" x1="32.5093" y1="20.7787" x2="34.5142" y2="28.1518" gradientUnits="userSpaceOnUse">
<stop stop-color="#99CCEE"/>
<stop offset="1" stop-color="#80B2DD"/>
</linearGradient>
<linearGradient id="paint3_linear" x1="32.5093" y1="27.439" x2="34.5142" y2="34.8121" gradientUnits="userSpaceOnUse">
<stop stop-color="#99CCEE"/>
<stop offset="1" stop-color="#80B2DD"/>
</linearGradient>
<linearGradient id="paint4_linear" x1="32.5093" y1="34.0993" x2="34.5142" y2="41.4724" gradientUnits="userSpaceOnUse">
<stop stop-color="#99CCEE"/>
<stop offset="1" stop-color="#80B2DD"/>
</linearGradient>
<linearGradient id="paint5_linear" x1="32.5093" y1="40.7598" x2="34.5142" y2="48.1329" gradientUnits="userSpaceOnUse">
<stop stop-color="#99CCEE"/>
<stop offset="1" stop-color="#80B2DD"/>
</linearGradient>
<clipPath id="clip0">
<rect width="64" height="64" fill="white"/>
</clipPath>
</defs>
</svg>
