<svg width="42" height="41" viewBox="0 0 42 41" fill="none" xmlns="http://www.w3.org/2000/svg">
<path d="M1 21C1 15.6957 3.10714 10.6086 6.85786 6.85786C10.6086 3.10714 15.6957 1 21 1C26.3043 0.999999 31.3914 3.10714 35.1421 6.85786C38.8929 10.6086 41 15.6957 41 21H37C37 16.7565 35.3143 12.6869 32.3137 9.68629C29.3131 6.68571 25.2435 5 21 5C16.7565 5 12.6869 6.68571 9.68629 9.68629C6.68571 12.6869 5 16.7565 5 21H1Z" fill="#FF0303" stroke="white" stroke-linecap="round" stroke-linejoin="round"/>
<path d="M6.85786 6.85786C9.65491 4.06081 13.2186 2.156 17.0982 1.38429C20.9778 0.61259 24.9991 1.00866 28.6537 2.52241C32.3082 4.03616 35.4318 6.59961 37.6294 9.88859C39.827 13.1776 41 17.0444 41 21H37C37 17.8355 36.0616 14.7421 34.3035 12.1109C32.5454 9.47969 30.0466 7.42893 27.1229 6.21793C24.1993 5.00692 20.9823 4.69007 17.8786 5.30744C14.7749 5.9248 11.9239 7.44865 9.68629 9.68629L6.85786 6.85786Z" fill="#FFD13C" stroke="white" stroke-linecap="round" stroke-linejoin="round"/>
<path d="M21 1C23.6264 1 26.2272 1.51732 28.6537 2.52241C31.0802 3.5275 33.285 5.00069 35.1421 6.85787C36.9993 8.71504 38.4725 10.9198 39.4776 13.3463C40.4827 15.7728 41 18.3736 41 21L37 21C37 18.8989 36.5862 16.8183 35.7821 14.8771C34.978 12.9359 33.7994 11.172 32.3137 9.68629C30.828 8.20055 29.0641 7.022 27.1229 6.21793C25.1817 5.41385 23.1012 5 21 5V1Z" fill="#3BDB61" stroke="white" stroke-linecap="round" stroke-linejoin="round"/>
<path d="M35.1421 6.85787C38.8929 10.6086 41 15.6957 41 21L37 21C37 16.7565 35.3143 12.6869 32.3137 9.68629L35.1421 6.85787Z" fill="#03A84C" stroke="white" stroke-linecap="round" stroke-linejoin="round"/>
<path d="M31.1618 14.6174C31.2955 14.8303 31.4225 15.0473 31.5425 15.2681L21.1054 20.9427C21.1042 20.9405 21.103 20.9383 21.1016 20.9362L31.1618 14.6174Z" fill="#27282E"/>
<rect x="19" y="20" width="4" height="2" rx="1" fill="#D5D6DB"/>
</svg>
