<svg width="32" height="32" viewBox="0 0 32 32" fill="none" xmlns="http://www.w3.org/2000/svg">
<g clip-path="url(#clip0)">
<path d="M31.3407 8.3181C30.9718 6.94726 29.891 5.86669 28.5204 5.49756C26.0162 4.81226 15.9997 4.81226 15.9997 4.81226C15.9997 4.81226 5.98337 4.81226 3.47923 5.47143C2.135 5.84033 1.02783 6.9475 0.658933 8.3181C0 10.822 0 16.0148 0 16.0148C0 16.0148 0 21.2338 0.658933 23.7116C1.02807 25.0822 2.10863 26.163 3.47948 26.5321C6.00974 27.2174 15.9999 27.2174 15.9999 27.2174C15.9999 27.2174 26.0162 27.2174 28.5204 26.5583C29.8912 26.1894 30.9718 25.1086 31.3409 23.738C31.9999 21.2338 31.9999 16.0412 31.9999 16.0412C31.9999 16.0412 32.0262 10.822 31.3407 8.3181Z" fill="#FF0000"/>
<path d="M12.8105 20.8123L21.1399 16.0149L12.8105 11.2175V20.8123Z" fill="white"/>
</g>
<defs>
<clipPath id="clip0">
<rect width="32" height="32" fill="white"/>
</clipPath>
</defs>
</svg>
